Patient4_TMGait_0pt6_02_left_01_EMG.mot
version=1
nRows=27
nColumns=33
inDegrees=no
endheader
time	1LAddLong	2LGlutMax	3LGlutMed	4LIliopsoas	5LSemiMemb	6LBicFemLong	7LRecFem	8LVastMed	9LVastLat	10LGasMed	11LTibAnt	12lTibPost	13LPeroneusLong	14LSol	15LExtDigLong	16LFlexDigLong	17RAddLong	18RGlutMax	19RGlutMed	20RIliopsoas	21RSemiMemb	22RBicFemLong	23RRecFem	24RVastMed	25RVastLat	26RGasMed	27RTibAnt	28RTibPost	29RPeroneusLong	30RSol	31RExtDigLong	32RFlexDigLong
1.565	0.035706	0.71671	-0.089111	0.006409	-0.036163	0.21454	0.34821	0.016022	-0.42068	-0.28854	0.06485	-0.31738	0.16083	-0.62927	-0.004578	0.005798	-0.16098	0.1593	0.30136	-0.10727	-0.089569	0.10834	0.42053	-0.086365	0.064697	0.011597	-0.46875	-0.001678	0.067444	-0.12268	0.001831	-0.005035
1.566	0.038605	0.61813	-0.20905	-0.00351	0.054779	0.10559	0.35355	0.012207	-0.39871	0.030975	0.10788	-0.31464	-0.07782	-0.44159	-0.048676	0.019989	-0.112	0.14542	0.22751	-0.029297	-0.12543	0.068512	0.44067	-0.10208	0.049744	0.005646	-0.14343	-0.006561	-0.052338	-0.02243	0	-0.001831
1.567	0.025787	0.52765	-0.22003	0.003357	0.063019	-0.21088	0.35233	0.023499	-0.36987	-0.016479	0.11551	-0.29358	-0.024567	-0.15503	0.001678	0.040436	-0.13672	0.086823	0.21316	0.031128	-0.14206	0.050659	0.45456	-0.10773	0.032501	-0.002136	-0.14175	-0.000305	-0.039215	0.10773	0.00061	-0.007477
1.568	0.01709	0.44769	-0.15289	-0.000763	0.021057	-0.16739	0.33737	0.011597	-0.3154	-0.37048	0.086975	-0.26474	0.1857	0.10223	0.11231	0.02121	-0.12543	0.040436	0.14374	-0.000305	-0.1619	0.00946	0.43549	-0.15411	0.041046	-0.001373	-0.20523	-0.001831	-0.005341	0.10529	0.001068	-0.00351
1.569	0.019073	0.42999	-0.17181	0.01709	0.04715	-0.076447	0.30868	0.019379	-0.25757	-0.32913	0.078278	-0.24368	-0.54016	0.19012	0.062561	-0.00412	-0.11124	0.019226	0.15823	-0.027924	-0.14542	-0.062408	0.4425	-0.15823	0.058289	-0.001221	-0.097961	0.003204	0.088196	0.019073	0	-0.004578
1.57	0.02182	0.36575	-0.22995	0.00473	-0.035858	0.014648	0.27374	0.014191	-0.19501	-0.10483	0.046692	-0.20554	-0.37643	0.16251	0.017853	-0.040283	-0.17609	0.013275	0.1387	0.049591	-0.099182	-0.20294	0.43488	-0.16769	0.044708	-0.003662	-0.001068	0.001373	0.018005	-0.000305	-0.000458	-0.004272
1.571	0.027924	0.22736	-0.25711	-0.003052	-0.11795	0.066223	0.27008	0.011292	-0.059662	0.24109	-0.14603	-0.18662	0.25085	0.14832	0.047302	-0.79178	-0.14664	0.035858	0.023956	0.074921	-0.064392	-0.30426	0.45593	-0.17563	0.028992	-0.009918	-0.21164	-0.002747	-0.085907	0.00885	-0.003357	-0.007629
1.572	0.010986	0.13275	-0.21255	-0.006256	-0.15717	-0.19211	0.35339	0.010986	-0.015717	0.32913	-0.17166	-0.16449	0.27206	0.06012	0.023956	0.55695	-0.043488	-0.023499	-0.037842	0.11383	-0.091248	-0.20462	0.45288	-0.18127	0.009918	-0.006409	-0.35294	-0.006104	-0.067596	-0.031586	-0.001831	-0.007172
1.573	0.014801	-0.021362	-0.26657	-0.000458	-0.092621	-0.042725	0.26016	0.008545	0.14374	0.090485	-0.097198	-0.11917	-0.14481	-0.078735	0.000458	0.56869	0.014343	-0.014801	-0.086975	0.097504	-0.12756	-0.053101	0.42877	-0.27359	0.001068	-0.000458	0.083466	0.001068	-0.057831	-0.096893	0.001373	-0.015259
1.574	-0.005341	-0.17425	-0.2594	0.016937	-0.13473	0.23148	0.25269	-0.005646	0.18143	-0.23346	-0.029449	-0.099182	-0.17487	-0.08728	0.031433	-0.074158	0.046387	-0.059509	-0.015259	0.06485	-0.10849	-0.004578	0.41138	-0.27161	0.003815	0.001068	0.39551	-0.004272	0.016937	-0.22369	0.003662	-0.005951
1.575	-0.011444	-0.22171	-0.17685	0.005951	-0.20859	0.24994	0.21286	0.001831	0.10346	0.049896	-0.001831	-0.063477	-0.10361	-0.18265	0.064392	-0.30533	0.091858	-0.032196	-0.16205	0.14923	-0.1181	0.011749	0.42862	-0.15579	0.01297	0.002747	0.43579	-0.001984	0.076294	-0.1564	0.000763	-0.014954
1.576	0.016174	-0.27847	-0.041809	0.028839	-0.29144	0.039368	0.13473	0.022125	-0.11932	-0.14221	-0.022888	-0.046234	-0.079498	-0.33783	0.054932	0.62363	0.10193	-0.032349	-0.28122	0.28	-0.093994	0.024109	0.40359	-0.11902	0.037079	-0.000763	0.30441	-0.006866	0.060425	-0.015106	0.002289	-0.013275
1.577	0.039978	-0.32959	0.059509	0.030975	-0.19043	-0.19638	0.11078	-0.003052	-0.38422	-0.040588	-0.028839	-0.031281	0.10208	-0.31708	0.035095	0.20966	0.13611	-0.05661	-0.20599	0.27771	-0.073853	-0.002441	0.44174	-0.15442	0.023651	-0.004272	0.19333	-0.002899	0.089569	0.067444	-0.001068	-0.010376
1.578	0.062714	-0.35202	-0.011597	0.029755	-0.062714	-0.33905	0.004578	-0.007782	-0.39993	0.39154	-0.037994	-0.021515	0.27634	-0.12817	0.039368	-0.5069	0.13901	-0.070343	0.042419	0.14648	-0.062408	-0.002747	0.46036	-0.10651	0.011139	-0.012054	-0.17334	-0.00061	0.011292	0.10529	0.00061	-0.005188
1.579	0.073395	-0.32074	-0.11826	-0.004883	0.18707	-0.34775	0.062714	-0.001831	-0.32532	0.61432	-0.027313	0.001678	0.12054	-0.20386	-0.001221	0.063782	0.058899	-0.070343	-0.096741	0.060425	-0.05127	0.063477	0.45029	-0.032043	0.029297	-0.012817	0.072479	-0.004883	-0.090332	0.08194	-0.001678	-0.017242
1.58	0.054474	-0.26993	-0.12436	-0.041351	0.26093	-0.020599	0.052185	0	-0.18066	0.44006	-0.005188	0.04715	-0.11154	-0.3009	-0.074463	0.12375	0.026703	-0.045624	-0.33554	0.045166	-0.023499	0.06012	0.38376	-0.01297	0.029907	-0.011749	0.059204	0.004272	-0.13489	0.067902	0.001068	-0.011139
1.581	0.035095	-0.21591	-0.15717	-0.010834	0.10025	0.15945	0.07019	0.00351	0.020294	-0.24948	-0.001373	0.11643	-0.10956	-0.36682	-0.065613	0.056763	0.054626	-0.031738	-0.22934	0.025177	-0.011292	0.075073	0.40253	-0.002594	0.020599	-0.005646	0.30975	-0.005646	-0.037842	-0.045471	0.000916	-0.007782
1.582	0.021667	-0.10834	-0.030365	0.002747	-0.003662	0.10208	0.10498	-0.015106	0.096436	-0.90073	-0.02533	0.14008	-0.24796	-0.36621	-0.099487	-0.015717	0.09079	-0.11246	-0.14435	-0.010376	-0.065765	-0.012817	0.40512	0.015869	0.024719	0.005646	0.60059	-0.003662	-0.02655	-0.13153	0.00473	-0.010681
1.583	0.004272	0.020447	0.033417	-0.005798	0.002136	0.14374	0.13336	-0.005341	-0.092163	-0.58426	-0.018005	0.12436	-0.009003	-0.13672	-0.095367	-0.014343	0.049591	-0.009613	-0.28946	0.028839	-0.13626	0.007324	0.3447	0.025787	0.032196	0.000916	-0.15564	-0.005035	0.070953	-0.13397	0.001068	-0.001068
1.584	0.013428	0.11948	0.058746	0.01709	0.014191	0.1712	0.052643	0.00061	-0.11566	-0.13733	-0.005798	0.070648	0.23025	0.26337	-0.018768	-0.028839	-0.049133	-0.019379	-0.55939	-0.011597	-0.19424	0.1268	0.30106	0.050354	0.035095	-0.003662	-0.46249	0.000763	0.071716	-0.11688	0.003204	-0.003967
1.585	0.0177	0.15045	0.09079	0.011749	-0.024719	-0.083618	-0.019684	0.01236	-0.1387	0.12817	0.023041	0.040741	0.3183	0.61951	0.002594	0.19028	-0.12299	-0.11856	-0.29724	-0.13229	-0.14801	0.10468	0.35126	-0.001068	0.022736	-0.008545	-0.09201	-0.007477	0.040283	-0.14862	0.003357	-0.001526
1.586	0.007172	0.20096	-0.00473	0.008087	-0.011444	-0.19272	-0.052338	0.01709	-0.1648	0.027161	0.027313	0.032196	0.27161	0.55405	-0.034637	-0.65384	-0.0914	-0.14664	-0.23239	-0.20081	-0.014801	0.103	0.37445	0.013123	0.009613	0.002136	0.099487	-0.002441	0.12299	-0.177	-0.000458	-0.001068
1.587	0.014801	0.21042	-0.019226	0.023193	-0.092163	-0.033569	-0.12955	0.024109	-0.059204	0.15091	0.01709	-0.001373	0.18112	0.13779	-0.047455	0.3273	-0.054626	-0.22766	-0.25681	-0.10712	0.12146	0.010834	0.36743	0.020905	0.002289	0.00824	0.075989	-0.007629	0.074463	-0.098572	0.004425	-0.009918
1.588	0.013885	0.20996	0.004272	0.027008	-0.054626	0.034332	-0.24902	0.025177	0.027771	-0.081024	0.024109	-0.010071	0.14755	-0.15839	-0.037994	0.17212	-0.004883	-0.2272	-0.29205	0.10834	0.12894	0.001984	0.40756	0.011902	-0.014038	0.000305	-0.2269	-0.015717	0.065002	0.078888	-0.00061	-0.000916
1.589	0.004578	0.19241	-0.098419	0.024719	-0.092163	0.082397	-0.26138	0.028687	0.008545	-0.64102	0.062714	-0.00885	0.13763	-0.31433	-0.031433	0.063629	0.087585	-0.24674	-0.33615	0.1796	0.065002	0.058746	0.4567	0.027771	-0.042267	0.002289	-0.43182	-0.007019	0.044708	0.22736	0.002289	-0.017242
1.59	-0.01236	0.29129	-0.10315	-0.007629	-0.2153	0.13886	-0.24368	0.016327	-0.089722	-0.46081	0.077667	-0.007477	0.11368	-0.27679	-0.006714	0.022888	0.12756	-0.22675	-0.30792	0.15396	0.016632	0.11368	0.46387	0.086823	-0.031281	-0.006866	-0.12833	-0.00946	-0.080414	0.19012	-0.000916	-0.00946
1.591	-0.010223	0.30899	-0.1062	-0.004883	-0.27786	0.13718	-0.31708	0.013123	-0.07431	0.19302	0.077972	-0.016632	0.10819	-0.20752	0.008392	0.12177	0.12405	-0.25909	-0.3447	0.066833	-0.049133	0.037994	0.4335	0.091095	-0.036621	-0.009766	0.12955	-0.014191	-0.15259	0.12634	0.001526	-0.003967
